<!DOCTYPE svg PUBLIC "-//W3C//DTD SVG 1.1//EN" "http://www.w3.org/Graphics/SVG/1.1/DTD/svg11.dtd">
<!-- Uploaded to: SVG Repo, www.svgrepo.com, Transformed by: SVG Repo Mixer Tools -->
<svg fill="#000000" height="800px" width="800px" version="1.1" id="Layer_1" xmlns="http://www.w3.org/2000/svg" xmlns:xlink="http://www.w3.org/1999/xlink" viewBox="0 0 512 512" xml:space="preserve">
<g id="SVGRepo_bgCarrier" stroke-width="0"/>
<g id="SVGRepo_tracerCarrier" stroke-linecap="round" stroke-linejoin="round"/>
<g id="SVGRepo_iconCarrier"> <g> <g> <g> <path d="M469.333,51.2H128c-4.719,0-8.533,3.823-8.533,8.533s3.814,8.533,8.533,8.533h341.333c13.875,0,25.6,11.725,25.6,25.6 v375.467c0,14.353-11.238,25.6-25.6,25.6H51.2c-18.825,0-34.133-15.309-34.133-34.133c0-18.825,15.309-34.133,34.133-34.133 s34.133,15.309,34.133,34.133c0,4.71,3.814,8.533,8.533,8.533c4.719,0,8.533-3.823,8.533-8.533V51.2 C102.4,22.963,79.437,0,51.2,0S0,22.963,0,51.2v409.6C0,489.037,22.963,512,51.2,512h418.133 C493.261,512,512,493.261,512,469.333V93.867C512,70.34,492.86,51.2,469.333,51.2z M17.067,51.2 c0-18.825,15.309-34.133,34.133-34.133S85.333,32.375,85.333,51.2v371.55c-9.071-8.149-21.018-13.15-34.133-13.15 s-25.071,5-34.133,13.15V51.2z"/> <path d="M349.867,443.733c-4.719,0-8.533,3.823-8.533,8.533c0,4.71,3.814,8.533,8.533,8.533h102.4 c4.719,0,8.533-3.823,8.533-8.533V110.933c0-4.71-3.814-8.533-8.533-8.533h-307.2c-4.719,0-8.533,3.823-8.533,8.533v341.333 c0,4.71,3.814,8.533,8.533,8.533h170.667c4.719,0,8.533-3.823,8.533-8.533c0-39.467,29.918-72.073,68.267-76.331v42.197 c0,4.71,3.814,8.533,8.533,8.533c4.719,0,8.533-3.823,8.533-8.533v-51.2c0-4.71-3.814-8.533-8.533-8.533 c-48.879,0-89.097,37.564-93.432,85.333H153.6V307.2h162.133c4.719,0,8.533-3.823,8.533-8.533v-34.133 c0-4.71-3.814-8.533-8.533-8.533s-8.533,3.823-8.533,8.533v25.6H153.6V119.467h153.6V179.2c0,4.71,3.814,8.533,8.533,8.533 s8.533-3.823,8.533-8.533v-59.733h119.467v170.667h-42.667c-4.719,0-8.533,3.823-8.533,8.533s3.814,8.533,8.533,8.533h42.667 v136.533H349.867z"/> </g> </g> </g> </g>
</svg>