<!DOCTYPE svg PUBLIC "-//W3C//DTD SVG 1.1//EN" "http://www.w3.org/Graphics/SVG/1.1/DTD/svg11.dtd">
<!-- Uploaded to: SVG Repo, www.svgrepo.com, Transformed by: SVG Repo Mixer Tools -->
<svg fill="#000000" height="800px" width="800px" version="1.1" id="Capa_1" xmlns="http://www.w3.org/2000/svg" xmlns:xlink="http://www.w3.org/1999/xlink" viewBox="0 0 511 511" xml:space="preserve">
<g id="SVGRepo_bgCarrier" stroke-width="0"/>
<g id="SVGRepo_tracerCarrier" stroke-linecap="round" stroke-linejoin="round"/>
<g id="SVGRepo_iconCarrier"> <g> <path d="M26.2,398.2c-1.4,1.39-2.2,3.33-2.2,5.3c0,1.97,0.8,3.91,2.2,5.3c1.39,1.4,3.33,2.2,5.3,2.2c1.97,0,3.91-0.8,5.3-2.2 c1.4-1.39,2.2-3.33,2.2-5.3c0-1.97-0.8-3.91-2.2-5.3c-1.39-1.4-3.33-2.2-5.3-2.2C29.53,396,27.59,396.8,26.2,398.2z"/> <path d="M263.5,411c1.97,0,3.91-0.8,5.3-2.2c1.4-1.39,2.2-3.33,2.2-5.3c0-1.97-0.8-3.91-2.2-5.3c-1.39-1.4-3.32-2.2-5.3-2.2 c-1.97,0-3.91,0.8-5.3,2.2c-1.4,1.39-2.2,3.33-2.2,5.3c0,1.98,0.8,3.91,2.2,5.3C259.59,410.2,261.53,411,263.5,411z"/> <path d="M55.5,411h184c4.142,0,7.5-3.358,7.5-7.5s-3.358-7.5-7.5-7.5h-184c-4.142,0-7.5,3.358-7.5,7.5S51.358,411,55.5,411z"/> <path d="M510.992,323.396c-0.005-0.333-0.025-0.668-0.075-1.005c-0.001-0.005-0.001-0.01-0.002-0.015 c-0.039-0.253-0.09-0.506-0.156-0.759l-55.787-215.177C454.411,89.561,440.514,76,423.5,76c-4.94,0-9.616,1.146-13.781,3.181 L232.536,159.19c-9.51,4.294-17.065,12.36-20.729,22.13L194.302,228H175.5c-12.958,0-23.5,10.542-23.5,23.5V268H31.5 c-8.547,0-15.5,6.953-15.5,15.5v64c0,8.547,6.953,15.5,15.5,15.5H64v9H31.5C14.131,372,0,386.131,0,403.5S14.131,435,31.5,435h232 c17.369,0,31.5-14.131,31.5-31.5S280.869,372,263.5,372H231v-9h48.5c4.142,0,7.5-3.358,7.5-7.5v-52.223 c0-3.629-0.858-7.264-2.481-10.509l-19.666-39.332l9.973-34.454c1.887-6.518,6.444-12.009,12.503-15.064l115.837-58.41 l67.735,199.985L420.394,396H407.5c-4.142,0-7.5,3.358-7.5,7.5s3.358,7.5,7.5,7.5h80c12.958,0,23.5-10.542,23.5-23.5v-64 C511,323.465,510.993,323.431,510.992,323.396z M199.5,363H216v9H79v-9H199.5z M167,251.5c0-4.687,3.813-8.5,8.5-8.5h10.271 l6.833,25.056c-0.366-0.026-0.732-0.056-1.105-0.056H167V251.5z M31.5,348c-0.276,0-0.5-0.224-0.5-0.5v-64 c0-0.276,0.224-0.5,0.5-0.5h160c0.276,0,0.5,0.224,0.5,0.5V348H31.5z M263.5,387c9.098,0,16.5,7.402,16.5,16.5 s-7.402,16.5-16.5,16.5h-232c-9.098,0-16.5-7.402-16.5-16.5S22.402,387,31.5,387H263.5z M272,348h-65v-29.454 c4.02,7.521,11.933,12.454,20.721,12.454H272V348z M271.103,299.476c0.587,1.174,0.897,2.488,0.897,3.801V316h-44.279 c-3.822,0-7.194-2.576-8.2-6.264L201.319,243h36.292c3.24,0,6.154,1.8,7.603,4.699L271.103,299.476z M280.576,190.524 c-9.768,4.926-17.115,13.778-20.158,24.287l-5.896,20.368c-4.351-4.53-10.387-7.179-16.911-7.179h-27.289l15.53-41.412 c2.272-6.06,6.959-11.063,12.857-13.727l153.551-69.338c-0.165,1.304-0.26,2.629-0.26,3.977c0,4.094,0.793,8.003,2.22,11.594 l4.086,12.064L280.576,190.524z M408.315,113.95l-0.722-2.132c-0.375-1.379-0.593-2.822-0.593-4.318 c0-6.631,3.941-12.346,9.595-14.966l0.163-0.074c0.056-0.025,0.106-0.056,0.161-0.083c2.018-0.882,4.241-1.378,6.58-1.378 c9.098,0,16.5,7.402,16.5,16.5s-7.402,16.5-16.5,16.5C416.689,124,410.831,119.852,408.315,113.95z M416.533,138.214 c2.243,0.509,4.572,0.786,6.967,0.786c8.589,0,16.383-3.459,22.072-9.054l49.592,191.284l-12.432,12.432L416.533,138.214z M496,387.5c0,4.687-3.813,8.5-8.5,8.5h-45.894L496,341.606V387.5z"/> <path d="M111.5,292h-56c-4.142,0-7.5,3.358-7.5,7.5s3.358,7.5,7.5,7.5h56c4.142,0,7.5-3.358,7.5-7.5S115.642,292,111.5,292z"/> <path d="M111.5,316h-56c-4.142,0-7.5,3.358-7.5,7.5s3.358,7.5,7.5,7.5h56c4.142,0,7.5-3.358,7.5-7.5S115.642,316,111.5,316z"/> </g> </g>
</svg>