<!DOCTYPE svg PUBLIC "-//W3C//DTD SVG 1.1//EN" "http://www.w3.org/Graphics/SVG/1.1/DTD/svg11.dtd">
<!-- Uploaded to: SVG Repo, www.svgrepo.com, Transformed by: SVG Repo Mixer Tools -->
<svg fill="#000000" height="800px" width="800px" version="1.1" id="Layer_1" xmlns="http://www.w3.org/2000/svg" xmlns:xlink="http://www.w3.org/1999/xlink" viewBox="0 0 512 512" xml:space="preserve">
<g id="SVGRepo_bgCarrier" stroke-width="0"/>
<g id="SVGRepo_tracerCarrier" stroke-linecap="round" stroke-linejoin="round"/>
<g id="SVGRepo_iconCarrier"> <g> <g> <g> <path d="M503.467,324.267h-34.133c-4.71,0-8.533,3.823-8.533,8.533v162.133h-17.067V298.667c0-4.71-3.823-8.533-8.533-8.533H384 c-4.71,0-8.533,3.823-8.533,8.533v196.267H358.4V349.867c0-4.71-3.823-8.533-8.533-8.533h-51.2c-4.71,0-8.533,3.823-8.533,8.533 v145.067h-17.067v-93.867c0-4.71-3.823-8.533-8.533-8.533h-51.2c-4.71,0-8.533,3.823-8.533,8.533v93.867h-17.067v-42.667 c0-4.71-3.823-8.533-8.533-8.533H128c-4.71,0-8.533,3.823-8.533,8.533v42.667H51.2V307.2c0-4.71-3.823-8.533-8.533-8.533 c-4.71,0-8.533,3.823-8.533,8.533v187.733h-25.6c-4.71,0-8.533,3.823-8.533,8.533S3.823,512,8.533,512H128 c4.71,0,8.533-3.823,8.533-8.533V460.8h34.133v42.667c0,4.71,3.823,8.533,8.533,8.533h34.133c4.71,0,8.533-3.823,8.533-8.533 V409.6H256v93.867c0,4.71,3.823,8.533,8.533,8.533h34.133c4.71,0,8.533-3.823,8.533-8.533V358.4h34.133v145.067 c0,4.71,3.823,8.533,8.533,8.533H384c4.71,0,8.533-3.823,8.533-8.533V307.2h34.133v196.267c0,4.71,3.823,8.533,8.533,8.533 h34.133c4.71,0,8.533-3.823,8.533-8.533V341.333h25.6c4.71,0,8.533-3.823,8.533-8.533 C512,328.09,508.177,324.267,503.467,324.267z"/> <path d="M503.467,68.267H341.333c-4.71,0-8.533,3.823-8.533,8.533s3.823,8.533,8.533,8.533h153.6v184.201l-232.9-232.9 c-1.673-1.673-3.866-2.5-6.059-2.5s-4.386,0.828-6.059,2.5L17.067,269.525V85.333h93.867c4.71,0,8.533-3.823,8.533-8.533V42.667 c0-4.71-3.823-8.533-8.533-8.533H102.4V17.067h51.2v17.067h-8.533c-4.71,0-8.533,3.823-8.533,8.533V76.8 c0,4.71,3.823,8.533,8.533,8.533h25.6c4.71,0,8.533-3.823,8.533-8.533s-3.823-8.533-8.533-8.533H153.6V51.2h8.533 c4.71,0,8.533-3.823,8.533-8.533V8.533c0-4.71-3.823-8.533-8.533-8.533H93.867c-4.71,0-8.533,3.823-8.533,8.533v34.133 c0,4.71,3.823,8.533,8.533,8.533h8.533v17.067H8.533c-2.261,0-4.437,0.896-6.033,2.5C0.896,72.363,0,74.539,0,76.8l0.034,213.333 c0,3.456,2.082,6.562,5.274,7.885c1.058,0.435,2.159,0.649,3.26,0.649c2.227,0,4.412-0.87,6.033-2.5L255.974,54.707 l241.459,241.459c1.63,1.63,3.814,2.5,6.033,2.5c1.101,0,2.21-0.213,3.268-0.649c3.183-1.323,5.265-4.437,5.265-7.885V76.8 C512,72.09,508.177,68.267,503.467,68.267z"/> <path d="M290.133,170.667c0-18.825-15.309-34.133-34.133-34.133c-18.825,0-34.133,15.309-34.133,34.133S237.175,204.8,256,204.8 C274.825,204.8,290.133,189.491,290.133,170.667z M238.933,170.667c0-9.412,7.654-17.067,17.067-17.067 c9.412,0,17.067,7.654,17.067,17.067c0,9.412-7.654,17.067-17.067,17.067C246.588,187.733,238.933,180.079,238.933,170.667z"/> <path d="M204.8,298.667v68.267c0,4.71,3.823,8.533,8.533,8.533c4.71,0,8.533-3.823,8.533-8.533V307.2h68.267v8.533 c0,4.71,3.823,8.533,8.533,8.533s8.533-3.823,8.533-8.533v-17.067c0-4.71-3.823-8.533-8.533-8.533h-85.333 C208.623,290.133,204.8,293.956,204.8,298.667z"/> <path d="M162.133,290.133H93.867c-4.71,0-8.533,3.823-8.533,8.533v93.867H76.8c-4.71,0-8.533,3.823-8.533,8.533 S72.09,409.6,76.8,409.6h102.4c4.71,0,8.533-3.823,8.533-8.533s-3.823-8.533-8.533-8.533h-8.533v-93.867 C170.667,293.956,166.844,290.133,162.133,290.133z M153.6,392.533h-51.2V358.4h51.2V392.533z M153.6,341.333h-51.2V307.2h51.2 V341.333z"/> </g> </g> </g> </g>
</svg>