<?xml version="1.0" encoding="utf-8"?>
<!-- Generator: Adobe Illustrator 27.5.0, SVG Export Plug-In . SVG Version: 6.00 Build 0)  -->
<svg version="1.1" xmlns="http://www.w3.org/2000/svg" xmlns:xlink="http://www.w3.org/1999/xlink" x="0px" y="0px"
	 viewBox="0 0 1200 1200" style="enable-background:new 0 0 1200 1200;" xml:space="preserve">
<g id="background">
</g>
<g id="Logo">
	<g>
		<path style="fill:#404041;" d="M300.163,761.761c10.352,0,18.271,1.9,23.758,5.693c5.486,3.797,8.23,9.594,8.23,17.392
			c0,9.731-4.797,16.323-14.389,19.773c1.31,1.589,2.795,3.521,4.451,5.797c1.657,2.278,3.347,4.746,5.073,7.402
			c1.725,2.658,3.381,5.385,4.969,8.18c1.587,2.795,3.003,5.538,4.245,8.23h-14.597c-1.312-2.485-2.727-4.985-4.244-7.505
			c-1.519-2.518-3.055-4.969-4.607-7.35c-1.552-2.381-3.089-4.623-4.607-6.73c-1.519-2.104-2.934-3.984-4.244-5.641
			c-0.968,0.069-1.795,0.103-2.485,0.103c-0.691,0-1.346,0-1.967,0h-6.315v27.123H280.39v-70.705
			c3.174-0.69,6.556-1.156,10.145-1.398C294.123,761.882,297.332,761.761,300.163,761.761z M301.094,773.044
			c-2.761,0-5.315,0.105-7.661,0.312v23.188h5.694c3.174,0,5.969-0.171,8.386-0.517c2.415-0.344,4.433-0.967,6.055-1.864
			c1.621-0.895,2.847-2.105,3.675-3.624c0.829-1.516,1.242-3.449,1.242-5.797c0-2.208-0.414-4.07-1.242-5.59
			c-0.828-1.518-2.018-2.725-3.571-3.624c-1.553-0.895-3.4-1.534-5.539-1.914C305.994,773.235,303.647,773.044,301.094,773.044z"/>
		<path style="fill:#404041;" d="M346.645,834.227v-71.742h46.068v11.078h-33.024v17.702h29.401v10.869h-29.401v21.016h35.509
			v11.076H346.645z"/>
		<path style="fill:#404041;" d="M456.585,834.227c-0.968-2.829-1.972-5.624-3.01-8.385c-1.039-2.761-2.041-5.592-3.009-8.49
			h-30.303c-0.969,2.898-1.956,5.747-2.958,8.542c-1.003,2.795-1.99,5.574-2.957,8.333h-13.564
			c2.688-7.661,5.24-14.734,7.654-21.223c2.413-6.485,4.775-12.63,7.084-18.426c2.31-5.797,4.602-11.317,6.878-16.564
			c2.276-5.244,4.621-10.42,7.035-15.528h12.451c2.415,5.108,4.762,10.284,7.04,15.528c2.278,5.247,4.571,10.768,6.884,16.564
			c2.313,5.797,4.694,11.941,7.145,18.426c2.449,6.489,5.021,13.562,7.712,21.223H456.585z M435.415,776.358
			c-1.588,3.658-3.4,8.11-5.435,13.354c-2.037,5.246-4.158,10.941-6.366,17.082h23.603c-2.21-6.141-4.348-11.87-6.419-17.185
			C438.728,784.295,436.933,779.877,435.415,776.358z"/>
		<path style="fill:#404041;" d="M525.012,822.942v11.285H479.67v-71.742h13.043v60.457H525.012z"/>
		<path style="fill:#404041;" d="M559.07,834.227v-71.742h46.068v11.078h-33.024v17.702h29.401v10.869h-29.401v21.016h35.509v11.076
			H559.07z"/>
		<path style="fill:#404041;" d="M637.125,824.495c4.693,0,8.11-0.792,10.25-2.381c2.137-1.587,3.209-3.829,3.209-6.729
			c0-1.723-0.362-3.209-1.088-4.45c-0.724-1.243-1.759-2.363-3.105-3.366c-1.345-0.999-2.986-1.932-4.917-2.795
			c-1.933-0.862-4.142-1.707-6.624-2.536c-2.484-0.895-4.883-1.88-7.195-2.95c-2.313-1.069-4.349-2.397-6.109-3.986
			c-1.76-1.586-3.175-3.483-4.245-5.693c-1.07-2.208-1.603-4.866-1.603-7.971c0-6.487,2.242-11.577,6.73-15.269
			c4.484-3.692,10.593-5.538,18.323-5.538c4.486,0,8.47,0.501,11.957,1.5c3.483,1.003,6.227,2.089,8.229,3.26l-4.038,10.561
			c-2.347-1.311-4.917-2.312-7.712-3.002c-2.795-0.69-5.677-1.036-8.643-1.036c-3.521,0-6.264,0.724-8.231,2.174
			c-1.966,1.45-2.95,3.485-2.95,6.107c0,1.589,0.326,2.952,0.984,4.09c0.655,1.14,1.586,2.158,2.795,3.053
			c1.206,0.899,2.622,1.727,4.245,2.485c1.619,0.762,3.398,1.486,5.331,2.174c3.38,1.243,6.4,2.502,9.057,3.779
			c2.656,1.277,4.9,2.795,6.73,4.554c1.828,1.76,3.225,3.831,4.193,6.212c0.965,2.381,1.448,5.263,1.448,8.643
			c0,6.489-2.295,11.509-6.885,15.062c-4.589,3.557-11.301,5.333-20.135,5.333c-2.968,0-5.677-0.191-8.126-0.571
			c-2.451-0.38-4.625-0.845-6.521-1.397c-1.9-0.551-3.539-1.122-4.917-1.709c-1.382-0.585-2.484-1.12-3.314-1.604l3.831-10.664
			c1.864,1.036,4.382,2.071,7.557,3.105C628.808,823.978,632.639,824.495,637.125,824.495z"/>
		<path style="fill:#404041;" d="M725.636,762.485v11.285h-22.049v60.457h-13.149V773.77h-22.049v-11.285H725.636z"/>
		<path style="fill:#404041;" d="M777.399,834.227c-0.97-2.829-1.973-5.624-3.011-8.385c-1.038-2.761-2.042-5.592-3.009-8.49
			h-30.303c-0.969,2.898-1.955,5.747-2.959,8.542c-1.002,2.795-1.989,5.574-2.955,8.333h-13.566
			c2.69-7.661,5.242-14.734,7.655-21.223c2.413-6.485,4.775-12.63,7.085-18.426c2.31-5.797,4.602-11.317,6.878-16.564
			c2.276-5.244,4.621-10.42,7.034-15.528h12.453c2.415,5.108,4.76,10.284,7.038,15.528c2.278,5.247,4.571,10.768,6.885,16.564
			c2.313,5.797,4.695,11.941,7.145,18.426c2.449,6.489,5.021,13.562,7.712,21.223H777.399z M756.228,776.358
			c-1.588,3.658-3.4,8.11-5.435,13.354c-2.037,5.246-4.159,10.941-6.367,17.082h23.604c-2.21-6.141-4.348-11.87-6.419-17.185
			C759.54,784.295,757.746,779.877,756.228,776.358z"/>
		<path style="fill:#404041;" d="M844.584,762.485v11.285h-22.049v60.457h-13.149V773.77h-22.049v-11.285H844.584z"/>
		<path style="fill:#404041;" d="M854.522,834.227v-71.742h46.069v11.078h-33.023v17.702h29.399v10.869h-29.399v21.016h35.508
			v11.076H854.522z"/>
	</g>
	<g>
		<path style="fill:#808184;" d="M427.696,896.251c-1.437,0-2.771-0.259-4.004-0.772c-1.233-0.515-2.306-1.266-3.217-2.253
			c-0.912-0.986-1.63-2.203-2.155-3.651c-0.525-1.446-0.788-3.103-0.788-4.969c0-1.866,0.284-3.523,0.853-4.969
			c0.568-1.448,1.324-2.665,2.268-3.651c0.944-0.986,2.037-1.732,3.281-2.237c1.244-0.503,2.542-0.756,3.893-0.756
			c0.836,0,1.597,0.054,2.284,0.161c0.686,0.109,1.286,0.242,1.802,0.403c0.514,0.16,0.953,0.321,1.318,0.481
			c0.365,0.162,0.644,0.307,0.837,0.435l-0.707,1.898c-0.537-0.321-1.217-0.639-2.043-0.949c-0.826-0.31-1.85-0.467-3.071-0.467
			c-1.395,0-2.611,0.237-3.651,0.708c-1.041,0.473-1.915,1.138-2.622,1.994c-0.708,0.858-1.239,1.878-1.593,3.057
			c-0.353,1.179-0.531,2.488-0.531,3.924c0,1.48,0.177,2.815,0.531,4.004c0.354,1.192,0.874,2.205,1.561,3.041
			c0.686,0.835,1.528,1.478,2.525,1.93c0.998,0.449,2.139,0.674,3.426,0.674c1.415,0,2.599-0.134,3.554-0.401
			c0.954-0.268,1.678-0.542,2.172-0.82l0.612,1.866c-0.151,0.107-0.408,0.23-0.772,0.369c-0.365,0.141-0.826,0.285-1.383,0.435
			c-0.558,0.15-1.201,0.273-1.93,0.369C429.412,896.201,428.597,896.251,427.696,896.251z"/>
		<path style="fill:#808184;" d="M462.534,884.606c0,1.908-0.279,3.592-0.836,5.049c-0.558,1.459-1.314,2.675-2.268,3.651
			c-0.954,0.977-2.065,1.711-3.329,2.205c-1.265,0.492-2.606,0.74-4.021,0.74c-1.415,0-2.755-0.248-4.021-0.74
			c-1.266-0.494-2.375-1.227-3.329-2.205c-0.954-0.976-1.71-2.192-2.268-3.651c-0.557-1.457-0.836-3.141-0.836-5.049
			c0-1.909,0.279-3.587,0.836-5.035c0.557-1.447,1.314-2.657,2.268-3.633c0.954-0.976,2.064-1.711,3.329-2.205
			c1.266-0.492,2.606-0.74,4.021-0.74c1.415,0,2.756,0.248,4.021,0.74c1.265,0.494,2.375,1.229,3.329,2.205
			c0.954,0.976,1.71,2.186,2.268,3.633C462.255,881.019,462.534,882.698,462.534,884.606z M460.218,884.606
			c0-1.502-0.194-2.847-0.58-4.036c-0.385-1.191-0.933-2.205-1.64-3.041c-0.708-0.836-1.561-1.473-2.558-1.914
			c-0.997-0.439-2.118-0.66-3.361-0.66c-1.244,0-2.364,0.221-3.361,0.66c-0.997,0.441-1.85,1.077-2.558,1.914
			c-0.707,0.836-1.255,1.85-1.64,3.041c-0.386,1.19-0.58,2.534-0.58,4.036c0,1.502,0.193,2.847,0.58,4.036
			c0.385,1.192,0.933,2.205,1.64,3.041c0.708,0.835,1.561,1.478,2.558,1.93c0.997,0.449,2.117,0.674,3.361,0.674
			c1.243,0,2.364-0.225,3.361-0.674c0.997-0.451,1.85-1.095,2.558-1.93c0.707-0.836,1.255-1.85,1.64-3.041
			C460.024,887.453,460.218,886.108,460.218,884.606z"/>
		<path style="fill:#808184;" d="M482.251,892.552c-0.216-0.537-0.523-1.245-0.92-2.124c-0.399-0.879-0.846-1.839-1.341-2.879
			c-0.496-1.04-1.002-2.112-1.519-3.216c-0.517-1.106-1.012-2.14-1.486-3.105c-0.474-0.965-0.895-1.812-1.26-2.542
			c-0.367-0.728-0.636-1.243-0.808-1.543c-0.279,2.681-0.498,5.592-0.659,8.732c-0.161,3.143-0.306,6.439-0.434,9.892h-2.155
			c0.194-4.052,0.413-7.934,0.66-11.645c0.246-3.71,0.551-7.257,0.917-10.646h1.93c0.644,1.072,1.331,2.312,2.063,3.715
			c0.73,1.404,1.456,2.863,2.175,4.375c0.72,1.511,1.418,3.002,2.095,4.47c0.677,1.47,1.273,2.795,1.789,3.974
			c0.516-1.179,1.112-2.504,1.789-3.974c0.677-1.468,1.375-2.959,2.095-4.47c0.72-1.512,1.445-2.971,2.176-4.375
			c0.73-1.404,1.418-2.643,2.063-3.715h1.833c0.364,3.389,0.67,6.937,0.917,10.646c0.246,3.712,0.466,7.593,0.659,11.645h-2.22
			c-0.129-3.453-0.273-6.749-0.434-9.892c-0.161-3.141-0.382-6.052-0.66-8.732c-0.172,0.3-0.44,0.815-0.804,1.543
			c-0.365,0.729-0.783,1.577-1.254,2.542c-0.473,0.965-0.965,1.999-1.48,3.105c-0.514,1.104-1.018,2.176-1.512,3.216
			c-0.493,1.04-0.938,1.999-1.335,2.879c-0.397,0.879-0.703,1.587-0.917,2.124H482.251z"/>
		<path style="fill:#808184;" d="M510.462,873.284c3.152,0,5.5,0.599,7.045,1.802c1.544,1.2,2.316,2.905,2.316,5.114
			c0,1.266-0.226,2.344-0.676,3.234c-0.45,0.89-1.093,1.607-1.93,2.155c-0.836,0.548-1.86,0.943-3.072,1.19
			c-1.211,0.248-2.578,0.371-4.101,0.371h-3.024v8.62h-2.188v-21.874c0.772-0.214,1.678-0.369,2.718-0.465
			C508.591,873.332,509.562,873.284,510.462,873.284z M510.559,875.182c-0.815,0-1.507,0.027-2.075,0.08
			c-0.568,0.054-1.056,0.102-1.464,0.144v9.844h2.766c1.179,0,2.247-0.07,3.201-0.21c0.954-0.139,1.769-0.396,2.444-0.771
			c0.676-0.376,1.195-0.895,1.561-1.561c0.364-0.665,0.547-1.512,0.547-2.542c0-0.986-0.199-1.801-0.595-2.445
			c-0.398-0.642-0.923-1.152-1.577-1.527c-0.655-0.375-1.399-0.638-2.236-0.788C512.295,875.256,511.437,875.182,510.559,875.182z"
			/>
		<path style="fill:#808184;" d="M542.435,895.768c-0.425-1.095-0.817-2.147-1.174-3.159c-0.358-1.009-0.699-1.996-1.025-2.954
			h-10.89c-0.372,0.963-0.737,1.951-1.092,2.963c-0.356,1.011-0.733,2.062-1.13,3.15h-2.284c0.846-2.32,1.645-4.482,2.399-6.487
			c0.753-2.005,1.491-3.901,2.215-5.688c0.724-1.789,1.443-3.508,2.156-5.156c0.714-1.648,1.464-3.303,2.251-4.96h1.929
			c0.786,1.65,1.532,3.301,2.238,4.953c0.706,1.652,1.422,3.373,2.148,5.16c0.726,1.787,1.463,3.685,2.208,5.691
			c0.746,2.007,1.568,4.168,2.463,6.487H542.435z M534.764,875.986c-0.807,1.851-1.593,3.729-2.357,5.636
			c-0.764,1.907-1.555,3.963-2.374,6.168h9.515c-0.823-2.208-1.625-4.268-2.404-6.177
			C536.364,879.705,535.57,877.828,534.764,875.986z"/>
		<path style="fill:#808184;" d="M568.009,895.768c-0.414-0.746-0.933-1.627-1.557-2.64c-0.625-1.013-1.319-2.089-2.082-3.227
			c-0.764-1.138-1.562-2.315-2.392-3.531c-0.83-1.215-1.658-2.397-2.481-3.546c-0.823-1.15-1.628-2.226-2.417-3.23
			c-0.788-1.004-1.488-1.873-2.098-2.604v18.778h-2.155v-22.292h1.737c1.095,1.222,2.268,2.633,3.518,4.233
			c1.25,1.602,2.477,3.232,3.679,4.892c1.201,1.662,2.323,3.285,3.365,4.871c1.042,1.587,1.895,2.968,2.562,4.147v-18.143h2.155
			v22.292H568.009z"/>
		<path style="fill:#808184;" d="M585.637,895.768V886.6c-1.529-2.337-2.935-4.595-4.216-6.771
			c-1.281-2.176-2.471-4.295-3.569-6.353h2.541c0.903,1.887,1.898,3.801,2.983,5.742c1.086,1.94,2.22,3.79,3.402,5.549
			c1.14-1.759,2.257-3.608,3.354-5.549c1.096-1.941,2.107-3.854,3.031-5.742h2.38c-1.137,2.037-2.337,4.154-3.603,6.353
			c-1.266,2.198-2.637,4.434-4.117,6.706v9.232H585.637z"/>
		<path style="fill:#808184;" d="M620.439,894.352c1.737,0,3.089-0.316,4.054-0.951c0.965-0.633,1.447-1.661,1.447-3.078
			c0-0.817-0.155-1.5-0.466-2.048c-0.312-0.548-0.724-1.01-1.24-1.386c-0.514-0.377-1.104-0.698-1.768-0.963
			c-0.665-0.268-1.362-0.549-2.092-0.847c-0.922-0.362-1.748-0.735-2.476-1.12c-0.729-0.384-1.352-0.817-1.866-1.299
			c-0.515-0.483-0.908-1.034-1.176-1.657c-0.268-0.622-0.401-1.35-0.401-2.187c0-1.908,0.631-3.357,1.898-4.343
			c1.265-0.986,3.023-1.48,5.276-1.48c0.599,0,1.19,0.045,1.769,0.128c0.578,0.087,1.12,0.2,1.623,0.339
			c0.505,0.139,0.965,0.294,1.384,0.466c0.417,0.173,0.767,0.355,1.045,0.547l-0.772,1.834c-0.622-0.428-1.379-0.772-2.267-1.029
			c-0.89-0.257-1.85-0.387-2.879-0.387c-0.708,0-1.357,0.071-1.948,0.211c-0.589,0.139-1.099,0.364-1.527,0.674
			c-0.43,0.312-0.767,0.703-1.013,1.175c-0.248,0.471-0.371,1.04-0.371,1.703c0,0.687,0.128,1.266,0.387,1.737
			c0.257,0.473,0.615,0.879,1.077,1.224c0.46,0.343,1.002,0.655,1.625,0.933c0.621,0.278,1.297,0.567,2.026,0.869
			c0.88,0.364,1.709,0.728,2.494,1.093c0.781,0.364,1.462,0.794,2.042,1.286c0.578,0.494,1.04,1.094,1.382,1.802
			c0.343,0.708,0.516,1.577,0.516,2.606c0,2.015-0.703,3.528-2.108,4.536c-1.404,1.008-3.307,1.512-5.709,1.512
			c-0.858,0-1.639-0.055-2.347-0.162c-0.708-0.107-1.341-0.241-1.898-0.401c-0.558-0.161-1.029-0.327-1.416-0.5
			c-0.385-0.171-0.687-0.321-0.901-0.449l0.708-1.898c0.214,0.128,0.503,0.278,0.869,0.45c0.364,0.173,0.794,0.339,1.286,0.499
			c0.494,0.16,1.05,0.294,1.673,0.401C619.003,894.3,619.688,894.352,620.439,894.352z"/>
		<path style="fill:#808184;" d="M649.744,893.87v1.898H637.07v-22.292h2.188v20.394H649.744z"/>
		<path style="fill:#808184;" d="M676.926,884.606c0,1.908-0.28,3.592-0.836,5.049c-0.558,1.459-1.314,2.675-2.269,3.651
			c-0.954,0.977-2.063,1.711-3.328,2.205c-1.266,0.492-2.606,0.74-4.022,0.74c-1.414,0-2.756-0.248-4.02-0.74
			c-1.264-0.494-2.376-1.227-3.328-2.205c-0.956-0.976-1.71-2.192-2.269-3.651c-0.558-1.457-0.837-3.141-0.837-5.049
			c0-1.909,0.278-3.587,0.837-5.035c0.558-1.447,1.313-2.657,2.269-3.633c0.953-0.976,2.064-1.711,3.328-2.205
			c1.265-0.492,2.606-0.74,4.02-0.74c1.416,0,2.756,0.248,4.022,0.74c1.265,0.494,2.374,1.229,3.328,2.205
			c0.954,0.976,1.711,2.186,2.269,3.633C676.646,881.019,676.926,882.698,676.926,884.606z M674.609,884.606
			c0-1.502-0.193-2.847-0.578-4.036c-0.387-1.191-0.933-2.205-1.641-3.041c-0.708-0.836-1.561-1.473-2.558-1.914
			c-0.997-0.439-2.117-0.66-3.362-0.66c-1.243,0-2.363,0.221-3.36,0.66c-0.997,0.441-1.85,1.077-2.558,1.914
			c-0.708,0.836-1.254,1.85-1.641,3.041c-0.385,1.19-0.578,2.534-0.578,4.036c0,1.502,0.193,2.847,0.578,4.036
			c0.387,1.192,0.933,2.205,1.641,3.041c0.708,0.835,1.561,1.478,2.558,1.93c0.997,0.449,2.117,0.674,3.36,0.674
			c1.245,0,2.365-0.225,3.362-0.674c0.997-0.451,1.85-1.095,2.558-1.93c0.708-0.836,1.254-1.85,1.641-3.041
			C674.416,887.453,674.609,886.108,674.609,884.606z"/>
		<path style="fill:#808184;" d="M700.503,885.218h2.189v9.938c-0.409,0.173-1.208,0.393-2.397,0.66
			c-1.19,0.267-2.654,0.401-4.391,0.401c-1.459,0-2.809-0.257-4.052-0.771c-1.245-0.515-2.322-1.261-3.234-2.237
			c-0.911-0.976-1.623-2.187-2.139-3.635c-0.515-1.446-0.772-3.103-0.772-4.969c0-1.866,0.278-3.523,0.837-4.969
			c0.558-1.448,1.313-2.659,2.269-3.635c0.953-0.976,2.064-1.721,3.328-2.237c1.265-0.514,2.617-0.772,4.054-0.772
			c1.65,0,3.012,0.178,4.085,0.531c1.072,0.353,1.855,0.692,2.349,1.013l-0.74,1.866c-0.601-0.428-1.416-0.778-2.445-1.045
			c-1.029-0.268-2.144-0.403-3.346-0.403c-1.115,0-2.165,0.205-3.152,0.612c-0.986,0.409-1.844,1.019-2.574,1.834
			c-0.73,0.815-1.302,1.823-1.721,3.023c-0.417,1.202-0.626,2.595-0.626,4.183c0,1.48,0.171,2.814,0.514,4.004
			c0.342,1.191,0.863,2.21,1.56,3.057c0.696,0.847,1.561,1.495,2.59,1.946c1.029,0.449,2.219,0.674,3.571,0.674
			c1.093,0,2.01-0.059,2.75-0.177c0.738-0.118,1.238-0.23,1.495-0.337V885.218z"/>
		<path style="fill:#808184;" d="M727.587,895.768c-0.426-1.095-0.817-2.147-1.174-3.159c-0.357-1.009-0.699-1.996-1.024-2.954
			h-10.891c-0.373,0.963-0.737,1.951-1.092,2.963c-0.357,1.011-0.733,2.062-1.131,3.15h-2.285c0.847-2.32,1.646-4.482,2.399-6.487
			c0.753-2.005,1.493-3.901,2.217-5.688c0.722-1.789,1.443-3.508,2.156-5.156c0.714-1.648,1.463-3.303,2.251-4.96h1.928
			c0.787,1.65,1.532,3.301,2.238,4.953c0.704,1.652,1.422,3.373,2.148,5.16c0.726,1.787,1.463,3.685,2.208,5.691
			c0.746,2.007,1.568,4.168,2.463,6.487H727.587z M719.916,875.986c-0.806,1.851-1.593,3.729-2.358,5.636
			c-0.763,1.907-1.555,3.963-2.372,6.168h9.514c-0.822-2.208-1.625-4.268-2.404-6.177
			C721.516,879.705,720.722,877.828,719.916,875.986z"/>
		<path style="fill:#808184;" d="M753.16,895.768c-0.414-0.746-0.933-1.627-1.559-2.64c-0.624-1.013-1.318-2.089-2.081-3.227
			c-0.763-1.138-1.561-2.315-2.392-3.531c-0.829-1.215-1.657-2.397-2.481-3.546c-0.822-1.15-1.628-2.226-2.417-3.23
			c-0.788-1.004-1.488-1.873-2.099-2.604v18.778h-2.155v-22.292h1.737c1.095,1.222,2.267,2.633,3.519,4.233
			c1.25,1.602,2.476,3.232,3.678,4.892c1.202,1.662,2.322,3.285,3.364,4.871c1.042,1.587,1.896,2.968,2.563,4.147v-18.143h2.156
			v22.292H753.16z"/>
	</g>
	<path style="fill:#7AC043;" d="M704.948,365.576"/>
	<g>
		<polygon style="fill:#25A9E0;" points="406.651,401.124 406.651,610.391 579.757,706.646 579.757,652.063 579.757,417.688 
			520.021,473.07 520.021,619.107 505.69,611.3 505.69,484.655 468.786,517.412 468.786,591.196 453.921,583.099 453.921,428.415 
			587.881,351.073 587.881,296.491 		"/>
		<polygon style="fill:#1B75BB;" points="587.881,296.491 587.881,351.073 721.841,428.415 721.841,583.099 706.976,591.196 
			706.976,517.412 670.072,484.655 670.072,611.3 655.741,619.107 655.741,473.07 596.005,417.688 596.005,652.063 596.005,706.646 
			769.112,610.391 769.112,401.124 		"/>
	</g>
</g>
</svg>
